<?xml version="1.0" encoding="utf-8"?>
<!-- Generator: Adobe Illustrator 23.1.1, SVG Export Plug-In . SVG Version: 6.00 Build 0)  -->
<svg version="1.1" id="Layer_1" xmlns="http://www.w3.org/2000/svg" xmlns:xlink="http://www.w3.org/1999/xlink" x="0px" y="0px"
	 viewBox="0 0 146 70" style="enable-background:new 0 0 146 70;" xml:space="preserve">
<style type="text/css">
	.st0{filter:url(#Adobe_OpacityMaskFilter);}
	.st1{fill-rule:evenodd;clip-rule:evenodd;fill:#FFFFFF;}
	.st2{mask:url(#mask-2_1_);fill-rule:evenodd;clip-rule:evenodd;fill:#F16C24;}
	.st3{fill-rule:evenodd;clip-rule:evenodd;fill:#46679B;}
	.st4{filter:url(#Adobe_OpacityMaskFilter_1_);}
	.st5{mask:url(#mask-4_1_);fill-rule:evenodd;clip-rule:evenodd;fill:#46679B;}
</style>
<title>927C2AC2-4EEB-45EC-8A1C-1722EF8675A8</title>
<desc>Created with sketchtool.</desc>
<g id="Design">
	<g transform="translate(-135.000000, -28.000000)">
		<g id="TOPNAV">
			<g transform="translate(135.000000, 28.000000)">
				<g id="logos">
					<g id="Group-3">
						<g id="Clip-2">
						</g>
						<defs>
							<filter id="Adobe_OpacityMaskFilter" filterUnits="userSpaceOnUse" x="30" y="23.1" width="81.9" height="26.9">
								<feColorMatrix  type="matrix" values="1 0 0 0 0  0 1 0 0 0  0 0 1 0 0  0 0 0 1 0"/>
							</filter>
						</defs>
						<mask maskUnits="userSpaceOnUse" x="30" y="23.1" width="81.9" height="26.9" id="mask-2_1_">
							<g class="st0">
								<polygon id="path-1_1_" class="st1" points="30,23.1 111.9,23.1 111.9,50 30,50 								"/>
							</g>
						</mask>
						<path id="Fill-1" class="st2" d="M43.4,32.6c2.2,0,3.9,1.8,3.9,3.9c0,2.1-1.8,3.9-3.9,3.9c-2.2,0-3.9-1.8-3.9-3.9
							C39.5,34.3,41.3,32.6,43.4,32.6z M79.3,47.8v0.3c0,1-0.8,1.8-1.9,1.8c-1,0-1.9-0.8-1.9-1.8c0-0.1,0-0.2,0-0.3V36.6v-0.1
							c0-5.3-4.2-9.6-9.4-9.6c-5.3,0-9.3,4.5-9.3,9.6c0,7.4-6,13.4-13.4,13.4c-7.4,0-13.4-6-13.4-13.4c0-7.4,6.1-13.4,13.4-13.4h0.2
							c1,0,1.8,0.8,1.8,1.8c0,1-0.8,1.8-1.8,1.8h-0.2c-5.3,0-9.7,4.4-9.7,9.8c0,5.3,4.4,9.7,9.7,9.7c5.4,0,9.8-4.4,9.8-9.7
							c0-7.1,5.9-13.2,13-13.2c7.2,0,13,6,13,13.3h0V47.8z M48.6,23.5c1,0,1.9,0.8,1.9,1.8c0,1-0.9,1.8-1.9,1.8
							c-1,0-1.8-0.8-1.8-1.8C46.7,24.3,47.6,23.5,48.6,23.5z M101.4,26.9c1,0,1.8-0.9,1.8-1.8c0-1-0.8-1.8-1.8-1.8H73.7
							c1.8,0.9,3.4,2.1,4.7,3.7h8.4v21.3c0,1,0.9,1.8,1.8,1.8c1,0,1.8-0.8,1.8-1.8l0-21.3H101.4z M106.3,23.4c1,0,1.9,0.9,1.9,1.9
							c0,1-0.9,1.8-1.9,1.8c-1,0-1.8-0.8-1.8-1.8C104.4,24.3,105.3,23.4,106.3,23.4z M110.7,24.1c0.7,0,1.2,0.5,1.2,1.2
							s-0.5,1.2-1.2,1.2c-0.7,0-1.2-0.5-1.2-1.2S110.1,24.1,110.7,24.1z M53.1,24.1c0.7,0,1.2,0.5,1.2,1.2s-0.5,1.2-1.2,1.2
							c-0.7,0-1.2-0.5-1.2-1.2S52.4,24.1,53.1,24.1z"/>
					</g>
					<path id="Fill-4" class="st3" d="M103.7,49c0,0.4,0.4,0.8,0.8,0.8c0.5,0,0.8-0.4,0.8-0.8v-6.2c0,0,0-0.1,0-0.2
						c-0.6,1.3-1.2,2.6-1.7,3.8V49z"/>
					<g id="Group-8" transform="translate(75.949109, 15.784615)">
						<g id="Clip-7">
						</g>
						<defs>
							<filter id="Adobe_OpacityMaskFilter_1_" filterUnits="userSpaceOnUse" x="30" y="23" width="6" height="11.2">
								<feColorMatrix  type="matrix" values="1 0 0 0 0  0 1 0 0 0  0 0 1 0 0  0 0 0 1 0"/>
							</filter>
						</defs>
						<mask maskUnits="userSpaceOnUse" x="30" y="23" width="6" height="11.2" id="mask-4_1_">
							<g class="st4">
								<polygon id="path-3_1_" class="st1" points="30,23 36,23 36,34.2 30,34.2 								"/>
							</g>
						</mask>
						<path id="Fill-6" class="st5" d="M32,23c0,0-0.1,0-0.1,0c0,0-0.1,0-0.1,0c-0.6,0-1,0.1-1.4,0.2c0.2,0.2,0.3,0.6,0.2,1
							c-0.1,0.3-0.3,0.7-0.5,1.1c0.3-0.4,0.9-0.6,1.7-0.6c0,0,0.1,0,0.1,0c0,0,0.1,0,0.1,0c2.2,0,2.3,2,2.3,2.4v6.4
							c0,0.5,0.4,0.8,0.8,0.8s0.8-0.4,0.8-0.8V27C36,25.7,35.2,23,32,23"/>
					</g>
					<path id="Fill-9" class="st3" d="M105.2,38.9c-0.4-0.2-1,0-1.1,0.5c-1.3,3.1-3.5,8.1-3.8,8.6c0,0-0.1,0.1-0.1,0.1c0,0,0,0,0,0
						c0,0,0,0,0,0c0,0-0.1-0.1-0.1-0.1c-0.3-0.5-2.5-5.5-3.8-8.6c-0.2-0.4-0.7-0.7-1.1-0.5c-0.4,0.2-0.7,0.7-0.5,1.1
						c1.3,3.1,3.6,8.4,3.9,8.9c0.5,0.7,1.1,0.9,1.5,0.9c0,0,0,0,0,0c0,0,0,0,0,0c0.4,0,1-0.2,1.5-0.9c0.4-0.5,2.6-5.8,3.9-8.9
						C105.9,39.5,105.7,39,105.2,38.9"/>
				</g>
			</g>
		</g>
	</g>
</g>
</svg>
