<?xml version="1.0" encoding="utf-8"?>
<!-- Generator: Adobe Illustrator 23.1.1, SVG Export Plug-In . SVG Version: 6.00 Build 0)  -->
<svg version="1.1" id="Layer_1" xmlns="http://www.w3.org/2000/svg" xmlns:xlink="http://www.w3.org/1999/xlink" x="0px" y="0px"
	 viewBox="0 0 512 512" style="enable-background:new 0 0 512 512;" xml:space="preserve">
<style type="text/css">
	.st0{fill:#EEEEEE;}
</style>
<title>BLOCKCHAIN</title>
<path class="st0" d="M504.3,118.3c0-0.2,0-0.4-0.1-0.7c-0.2-0.6-0.4-1.1-0.7-1.7c-0.1-0.2-0.3-0.3-0.4-0.5c-0.2-0.3-0.5-0.7-0.7-1
	c-0.2-0.2-0.4-0.3-0.6-0.4c-0.3-0.2-0.6-0.5-0.9-0.7l-0.1,0l0,0l-58.5-33.5c-2.2-1.2-4.8-1.2-7,0l-58.5,33.5l0,0l-0.1,0
	c-0.3,0.2-0.6,0.4-0.9,0.7c-0.2,0.1-0.4,0.3-0.5,0.4c-0.3,0.3-0.5,0.6-0.7,1c-0.1,0.2-0.3,0.3-0.4,0.5c-0.3,0.5-0.5,1.1-0.7,1.7
	c-0.1,0.2,0,0.4-0.1,0.6c-0.1,0.4-0.1,0.8-0.2,1.2v14.3l-52-32.6c0.1-0.4,0.1-0.7,0.1-1.1V41.5c0-0.4-0.1-0.8-0.2-1.1
	c0-0.2,0-0.4-0.1-0.7c-0.2-0.6-0.4-1.1-0.7-1.7c-0.1-0.2-0.3-0.4-0.5-0.6c-0.2-0.3-0.4-0.6-0.6-0.8c-0.2-0.2-0.4-0.4-0.7-0.5
	c-0.2-0.2-0.5-0.4-0.8-0.6h0l0-0.1L259.5,1.9c-2.2-1.2-4.8-1.2-7,0L194,35.4l0,0h0c-0.3,0.2-0.5,0.4-0.8,0.6
	c-0.2,0.2-0.5,0.3-0.7,0.5c-0.2,0.3-0.5,0.6-0.7,0.9c-0.2,0.2-0.3,0.4-0.4,0.6c-0.3,0.5-0.5,1.1-0.7,1.7c-0.1,0.2,0,0.4-0.1,0.6
	c-0.1,0.4-0.1,0.8-0.2,1.2V100c0,0.4,0.1,0.7,0.1,1.1l-52,32.6v-14.3c0-0.4-0.1-0.8-0.2-1.1c0-0.2,0-0.4-0.1-0.7
	c-0.2-0.6-0.4-1.1-0.7-1.7c-0.1-0.2-0.3-0.3-0.4-0.5c-0.2-0.3-0.5-0.7-0.7-1c-0.2-0.2-0.4-0.3-0.6-0.4c-0.3-0.2-0.6-0.5-0.9-0.7
	l-0.1,0l0,0L76.6,79.8c-2.2-1.2-4.8-1.2-7,0l-58.5,33.5l0,0l-0.1,0c-0.3,0.2-0.6,0.4-0.9,0.7c-0.2,0.1-0.4,0.3-0.5,0.4
	c-0.3,0.3-0.5,0.6-0.7,1c-0.1,0.2-0.3,0.3-0.4,0.5c-0.3,0.5-0.5,1.1-0.7,1.7c-0.1,0.2,0,0.4-0.1,0.6c-0.1,0.4-0.1,0.8-0.2,1.2v58.5
	c0,2.6,1.4,4.9,3.6,6.1l54.9,30v80.2l-55,31.5l0,0l-0.1,0c-0.3,0.2-0.6,0.4-0.9,0.7c-0.2,0.1-0.4,0.3-0.5,0.4
	c-0.3,0.3-0.5,0.6-0.7,1c-0.1,0.2-0.3,0.3-0.4,0.5c-0.3,0.5-0.5,1.1-0.7,1.7c-0.1,0.2,0,0.4-0.1,0.6c-0.1,0.4-0.1,0.8-0.2,1.2v58.5
	c0,2.6,1.4,4.9,3.7,6.1l58.5,31.9c0.3,0.2,0.7,0.3,1,0.4c0.2,0.1,0.4,0.2,0.6,0.2c1.2,0.3,2.4,0.3,3.6,0c0.2-0.1,0.4-0.2,0.6-0.2
	c0.4-0.1,0.7-0.2,1-0.4l49.7-27.1l64.4,42.9v29c0,2.6,1.4,4.9,3.6,6.1l58.5,31.9c0.3,0.2,0.7,0.3,1,0.4c0.2,0.1,0.4,0.2,0.6,0.2
	c1.2,0.3,2.4,0.3,3.6,0c0.2-0.1,0.4-0.2,0.6-0.2c0.4-0.1,0.7-0.2,1-0.4l58.5-31.9c2.2-1.2,3.6-3.6,3.6-6.1v-29l64.4-42.9l49.7,27.1
	c0.3,0.2,0.7,0.3,1,0.4c0.2,0.1,0.4,0.2,0.6,0.2c1.2,0.3,2.4,0.3,3.6,0c0.2-0.1,0.4-0.2,0.6-0.2c0.4-0.1,0.7-0.2,1-0.4l58.5-31.9
	c2.2-1.2,3.6-3.6,3.6-6.1v-58.5c0-0.4-0.1-0.8-0.2-1.1c0-0.2,0-0.4-0.1-0.7c-0.2-0.6-0.4-1.1-0.7-1.7c-0.1-0.2-0.3-0.3-0.4-0.5
	c-0.2-0.3-0.5-0.7-0.7-1c-0.2-0.2-0.4-0.3-0.6-0.4c-0.3-0.2-0.6-0.5-0.9-0.7l-0.1,0l0,0l-55-31.5V214l54.9-29.9
	c2.2-1.2,3.6-3.6,3.6-6.1v-58.5C504.4,119,504.3,118.6,504.3,118.3z M298.4,415.4L256,438.5l-42.4-23.1l-1.8-1l44.2-25.3l44.2,25.3
	L298.4,415.4z M124.6,173.7L80.1,198v-42.5l44.5-24.3V173.7z M73.1,306.3l44.2,25.3l-1.8,1l-42.4,23.1l-42.4-23.1l-1.8-1L73.1,306.3
	z M131,323.3l-50.9-29.2V214l46.4-25.3l64,41.7v51.1L131,323.3z M204.5,95.8V53.3L249,77.6v42.5L204.5,95.8z M307.5,95.8L263,120.1
	V77.6l44.5-24.3V95.8z M256,201.1l44.2,25.3l-1.8,1L256,250.5l-42.4-23.1l-1.8-1L256,201.1z M204.5,238.3l44.5,24.3v42.6l-44.5-24.3
	V238.3z M263,262.6l44.5-24.3v42.6L263,305.2V262.6z M321.5,230.3l64-41.7l46.4,25.3v80.2L381,323.3l-59.5-41.9V230.3z M431.9,155.5
	V198l-44.5-24.3v-42.5L431.9,155.5z M387.4,386.1v-42.6l44.5,24.3v42.5L387.4,386.1z M481.3,332.5l-42.4,23.1l-42.4-23.1l-1.8-1
	l44.2-25.3l44.2,25.3L481.3,332.5z M438.9,94l44.2,25.3l-1.8,1l-42.4,23.1l-42.4-23.1l-1.8-1L438.9,94z M373.7,179.7l-59.4,38.7
	L263,189v-52.9l47-25.6l63.4,39.7v27.7C373.4,178.5,373.5,179.1,373.7,179.7z M256,16.1l44.2,25.3l-42.2,23l-1.9,1.1l-1.9-1.1
	l-42.2-23.1L256,16.1z M202,110.5l47,25.6V189l-51.3,29.4l-59.4-38.7c0.2-0.6,0.2-1.2,0.2-1.8v-27.7L202,110.5z M73.1,94l44.2,25.3
	l-1.8,1l-42.4,23.1l-42.4-23.1l-1.8-1L73.1,94z M21.6,131.2l44.5,24.3V198l-44.5-24.3V131.2z M21.6,343.5l44.5,24.3v42.5l-44.5-24.3
	V343.5z M80.1,367.8l44.5-24.3v42.5l-44.5,24.3V367.8z M138.2,392.4c0.3-0.7,0.4-1.4,0.4-2.2v-55.1l59.4-41.8l51,27.9V377l-55,31.5
	l0,0l-0.1,0c-0.3,0.2-0.6,0.4-0.9,0.7c-0.2,0.1-0.4,0.3-0.5,0.4c-0.3,0.3-0.5,0.6-0.7,1c-0.1,0.2-0.3,0.3-0.4,0.5
	c-0.3,0.5-0.5,1.1-0.7,1.7c-0.1,0.2,0,0.4-0.1,0.6c-0.1,0.4-0.1,0.8-0.2,1.2v12.7L138.2,392.4z M204.5,440.3v-13.9l44.5,24.3v42.5
	l-44.5-24.3V440.3z M263,493.2v-42.5l44.5-24.3v42.6L263,493.2z M321.5,414.6c0-0.4-0.1-0.8-0.2-1.1c0-0.2,0-0.4-0.1-0.7
	c-0.2-0.6-0.4-1.1-0.7-1.7c-0.1-0.2-0.3-0.3-0.4-0.5c-0.2-0.3-0.5-0.7-0.7-1c-0.2-0.2-0.4-0.3-0.6-0.4c-0.3-0.2-0.6-0.5-0.9-0.7
	l-0.1,0l0,0L263,377v-55.9l51-27.9l59.4,41.8v55.1c0,0.7,0.1,1.5,0.4,2.2l-52.3,34.8L321.5,414.6z M445.9,410.3v-42.5l44.5-24.3
	v42.6L445.9,410.3z M445.9,198v-42.5l44.5-24.3v42.5L445.9,198z"/>
</svg>
