<?xml version="1.0" encoding="utf-8"?>
<!-- Generator: Adobe Illustrator 23.1.1, SVG Export Plug-In . SVG Version: 6.00 Build 0)  -->
<svg version="1.1" id="Layer_1" xmlns="http://www.w3.org/2000/svg" xmlns:xlink="http://www.w3.org/1999/xlink" x="0px" y="0px"
	 viewBox="0 0 482 231" style="enable-background:new 0 0 482 231;" xml:space="preserve">
<style type="text/css">
	.st0{opacity:0.25;}
	.st1{fill-rule:evenodd;clip-rule:evenodd;fill:#FFFFFF;}
</style>
<g class="st0">
	<path class="st1" d="M60.1,51.2c-7,0-12.8,5.8-12.8,12.8S53,76.8,60.1,76.8c7,0,12.8-5.8,12.8-12.8S67.1,51.2,60.1,51.2"/>
	<path class="st1" d="M414,204.8H292.5c-8.4,0-15.4-5.8-15.4-12.8c0-7,6.9-12.8,15.4-12.8h2.5c8.4,0,15.4-5.8,15.4-12.8
		c0-7-6.9-12.8-15.4-12.8h-60.1c-8.4,0-15.4-5.8-15.4-12.8c0-7,6.9-12.8,15.4-12.8h110.7c8.4,0,15.4-5.8,15.4-12.8
		s-6.9-12.8-15.4-12.8H221c-8.4,0-15.4-5.8-15.4-12.8s6.9-12.8,15.4-12.8h62.4c8.4,0,15.4-5.8,15.4-12.8s-6.9-12.8-15.4-12.8h0.7
		c-8.4,0-15.4-5.8-15.4-12.8s6.9-12.8,15.4-12.8h81.2c8.4,0,15.4-5.8,15.4-12.8S373.8,0,365.4,0H181.7c-8.4,0-15.4,5.8-15.4,12.8
		s6.9,12.8,15.4,12.8h46.7c8.4,0,15.4,5.8,15.4,12.8s-6.9,12.8-15.4,12.8H106.2c-8.4,0-15.4,5.8-15.4,12.8s6.9,12.8,15.4,12.8h0.2
		c8.4,0,15.4,5.8,15.4,12.8s-6.9,12.8-15.4,12.8H15.9c-8.4,0-15.4,5.8-15.4,12.8S7.4,128,15.9,128H179c8.4,0,15.4,5.8,15.4,12.8
		c0,7-6.9,12.8-15.4,12.8h-3.8c-8.4,0-15.4,5.8-15.4,12.8c0,7,6.9,12.8,15.4,12.8h61.4c8.4,0,15.4,5.8,15.4,12.8
		c0,7-6.9,12.8-15.4,12.8H115.9c-8.4,0-15.4,5.8-15.4,12.8c0,7,6.9,12.8,15.4,12.8H414c8.4,0,15.4-5.8,15.4-12.8
		C429.4,210.6,422.4,204.8,414,204.8 M466.5,204.8h-12.2c-8.4,0-15.4,5.8-15.4,12.8c0,7,6.9,12.8,15.4,12.8h12.2
		c8.4,0,15.4-5.8,15.4-12.8C481.8,210.6,474.9,204.8,466.5,204.8"/>
	<path class="st1" d="M323.1,166.4c0,7,6.9,12.8,15.4,12.8h53.1c8.4,0,15.4-5.8,15.4-12.8c0-7-6.9-12.8-15.4-12.8h-53.1
		C330,153.6,323.1,159.4,323.1,166.4"/>
</g>
</svg>
