<svg id="Layer_1" data-name="Layer 1" xmlns="http://www.w3.org/2000/svg" xmlns:xlink="http://www.w3.org/1999/xlink" viewBox="0 0 358.95 347.13"><defs><style>.cls-1,.cls-10,.cls-100,.cls-41,.cls-9{fill:none;}.cls-2{clip-path:url(#clip-path);}.cls-3,.cls-58{opacity:0.3;}.cls-4{fill:#efdbbf;}.cls-5{fill:#d0bb9a;}.cls-6{fill:#b19a87;}.cls-7,.cls-99{fill:#fff;}.cls-8{fill:#f2997c;}.cls-9{stroke:#8c92ab;}.cls-10,.cls-100,.cls-13,.cls-41,.cls-42,.cls-9{stroke-miterlimit:10;}.cls-10,.cls-41,.cls-42,.cls-9{stroke-width:0.5px;}.cls-10{stroke:#ff6969;}.cls-11{fill:#5d5466;}.cls-12{fill:#413948;}.cls-13{fill:#dc5b53;stroke:#333;stroke-width:0.25px;}.cls-14{fill:#aee3fb;}.cls-15{fill:#3f3944;}.cls-16{fill:#544d5c;}.cls-17{fill:#9fa6b8;}.cls-18{fill:#423946;}.cls-19{fill:#58bcf9;}.cls-20{fill:#e1f2f7;}.cls-21{fill:#fffeff;}.cls-22{fill:#afbecf;}.cls-23{fill:#dc4c2c;}.cls-24{fill:#f2b25b;}.cls-25{fill:#414557;}.cls-26{fill:#f2b15b;}.cls-27{fill:#e6683e;}.cls-28{fill:#f6bc81;}.cls-29{fill:#aeb85c;}.cls-30{fill:#cee2e0;}.cls-31{fill:#c9e2e2;}.cls-32{fill:#e26857;}.cls-33{fill:#f5bd7b;}.cls-34{fill:#e1e598;}.cls-35{fill:#8ca2bc;}.cls-36{fill:#90a4c3;}.cls-37{fill:#413a46;}.cls-38{fill:#544e5d;}.cls-39{fill:#463e4d;}.cls-40{fill:#fbde4d;}.cls-41{stroke:#544e5d;}.cls-42,.cls-74{fill:#413945;}.cls-42{stroke:#aeb0c0;}.cls-43{fill:#a9dafb;}.cls-44{fill:#f6df77;}.cls-45{fill:#a0a5bd;}.cls-46{fill:#dbf1f9;}.cls-47{fill:#fffff6;}.cls-48{fill:#b8bdcf;}.cls-49{fill:#6da8d5;}.cls-50{fill:#dcdf61;}.cls-51{fill:#e2f7e3;}.cls-52{fill:#f2c897;}.cls-53{fill:#bac662;}.cls-54{fill:#dcdf62;}.cls-55{fill:#e57969;}.cls-56{fill:#e65d51;}.cls-57{fill:#fefdfd;}.cls-58{fill:#020202;}.cls-59{fill:#ccd547;}.cls-60{fill:#fdfefe;}.cls-61{fill:#f4b48c;}.cls-62{fill:#663931;}.cls-63{fill:#2e2632;}.cls-64{fill:#96aa3b;}.cls-65{fill:#d47b67;}.cls-66{fill:#cf7a66;}.cls-67{fill:#ef6d63;}.cls-68{fill:#aa403b;}.cls-69{fill:#382d3a;}.cls-70{fill:#4f2e25;}.cls-71{fill:#ae3e3b;}.cls-72{fill:#ef6d62;}.cls-73{fill:#9babac;}.cls-75{fill:#504857;}.cls-76{fill:#8eb3c2;}.cls-77{fill:#362e37;}.cls-78{fill:#bfd4e2;}.cls-79{fill:#7b5f57;}.cls-80{fill:#cdb896;}.cls-81{fill:#e65e50;}.cls-82{fill:#699c47;}.cls-83{fill:#4d7b36;}.cls-84{fill:#c1ac8d;}.cls-85{fill:#797082;}.cls-86{fill:#bd6c59;}.cls-87{fill:#d5967a;}.cls-88{fill:#96534b;}.cls-89{fill:#ddd1ba;}.cls-90{fill:#f6f3e6;}.cls-91{fill:#d9d1bc;}.cls-92{fill:#fefbf7;}.cls-93{fill:#997d77;}.cls-94{fill:#b1a4a0;}.cls-95{fill:#ded1bc;}.cls-96{fill:#ede2dc;}.cls-97{fill:#8892a0;}.cls-98{fill:#d0dff2;}.cls-99{opacity:0.2;}.cls-100{stroke:#000;opacity:0.05;}</style><clipPath id="clip-path" transform="translate(12.32 0.5)"><rect class="cls-1" width="346.13" height="346.13"/></clipPath></defs><title>coder</title><g class="cls-2"><path class="cls-3" d="M34.51,276.57l-46.83-57.29V199.91H302.62l25,26.44.13,50.22-28-41.31L251,271.38l-33.27-40.3-65.53-5.32,56.94,65.85s-.43,15.32-7.19,16.1l-24.41.1-14,18.77s.43,2.16-3.25,2.55c3.25-2.55-4.63-.79-4.74-8.57.28.39,0-14.67,0-14.67L138.14,308,40.66,203.38v61.14Z" transform="translate(12.32 0.5)"/><g id="table"><rect class="cls-4" x="46.82" y="113.11" width="299.31" height="53.56"/><polygon class="cls-5" points="46.82 277.07 52.98 277.07 52.98 171.35 340.11 171.35 340.11 277.07 346.13 277.07 346.13 166.68 46.82 166.68 46.82 277.07"/><rect class="cls-6" x="46.82" y="171.35" width="6.15" height="3.18"/><rect class="cls-6" x="339.97" y="171.35" width="6.15" height="3.18"/></g><line class="cls-7" x1="190.61" y1="115.38" x2="190.51" y2="123.85"/><path class="cls-7" d="M160.32,123.35" transform="translate(12.32 0.5)"/><g id="paper"><polygon class="cls-8" points="102.59 138.08 93.63 141.48 117.07 162.91 137.54 155.86 113.46 134.24 102.59 138.08"/><polygon class="cls-7" points="99.13 134.1 120.62 158.58 147.95 153.45 127.99 129.04 99.13 134.1"/><path class="cls-9" d="M97.89,140.67c-.5-1.06-1.77-1.58-2.34-2.6a36.55,36.55,0,0,0,7.57-1.07l3.61,3.44" transform="translate(12.32 0.5)"/><path class="cls-9" d="M99.17,141.28a25.55,25.55,0,0,1,6.23-.56" transform="translate(12.32 0.5)"/><path class="cls-9" d="M105.22,137.58a5,5,0,0,1,1.52-2.47" transform="translate(12.32 0.5)"/><path class="cls-9" d="M107.11,138.7l2.65-.56" transform="translate(12.32 0.5)"/><path class="cls-9" d="M106.51,133.29a19.53,19.53,0,0,1,4.57-.45" transform="translate(12.32 0.5)"/><path class="cls-9" d="M107.72,134.43l1.93-.34" transform="translate(12.32 0.5)"/><path class="cls-9" d="M111.14,134.27l.88.24" transform="translate(12.32 0.5)"/><path class="cls-9" d="M110.67,137.17a2.82,2.82,0,0,1,1.32-.67,18.25,18.25,0,0,1,2.07-.35c.4-.05,1.06.29,1.43.15" transform="translate(12.32 0.5)"/><path class="cls-9" d="M109.11,140.81a3.65,3.65,0,0,1,1.47-.06c.33.06.64.16,1,.25a12.28,12.28,0,0,0,3.36.47" transform="translate(12.32 0.5)"/><path class="cls-9" d="M116.16,141.21l1.22-.23" transform="translate(12.32 0.5)"/><path class="cls-9" d="M119.64,140.72a22.34,22.34,0,0,1,3.47-.15" transform="translate(12.32 0.5)"/><path class="cls-9" d="M118.36,143.89a16.82,16.82,0,0,1,2.24-.07l-.36.05" transform="translate(12.32 0.5)"/><path class="cls-9" d="M104.81,147.62c-.29-.56-.58-1.13-.85-1.7,1.18,0,2.35-.11,3.52-.22.34.89,1.12,1.55,1.47,2.43a11.2,11.2,0,0,1-2.71-.12" transform="translate(12.32 0.5)"/><path class="cls-9" d="M107.17,149.77a2.75,2.75,0,0,1,1.45-.15,2.64,2.64,0,0,0-.53,1.09" transform="translate(12.32 0.5)"/><path class="cls-9" d="M114.27,146.53a2.86,2.86,0,0,0-.71-1.34.62.62,0,0,0-.21-.15.7.7,0,0,0-.29,0l-4,.49a18.62,18.62,0,0,0,1.43,2.22,11.33,11.33,0,0,1,4.19-.38c.7,0,1.53.12,1.88.73a4,4,0,0,1-1.78.06,6.6,6.6,0,0,0-2.61.31" transform="translate(12.32 0.5)"/><path class="cls-9" d="M115.17,149a6.78,6.78,0,0,1,2.26.49" transform="translate(12.32 0.5)"/><path class="cls-9" d="M118.48,143.74a3.68,3.68,0,0,0,1.55,0" transform="translate(12.32 0.5)"/><path class="cls-9" d="M120,146.74l1-.2" transform="translate(12.32 0.5)"/><path class="cls-9" d="M122.07,147.39c.66,0,1.32.06,2,.05" transform="translate(12.32 0.5)"/><path class="cls-10" d="M98.17,139.09c.37,0,1.35-.19,1.67,0s.36.84.57,1.12" transform="translate(12.32 0.5)"/><path class="cls-10" d="M102.32,138.46a4.65,4.65,0,0,0,.8,1" transform="translate(12.32 0.5)"/></g><g id="pc3"><path class="cls-3" d="M248.34,112.56l6.22,7.22,69.65,9.34a10.2,10.2,0,0,0,2.25-1.91l2.25-2.41a2,2,0,0,0,0-3c-.13,0-4.58-4.9-4.58-4.9l-39.71-4.31Z" transform="translate(12.32 0.5)"/><path class="cls-11" d="M242.39,48.88v56.48s-.84,2.49,3,3c.14,0,74.55,9.56,74.55,9.56s5.12.75,5.12-3.78c.14-.38,0-55.48,0-55.48S325,55.89,321,55.34c-.14-.14-74.55-9.7-74.55-9.7S242.39,44.78,242.39,48.88Z" transform="translate(12.32 0.5)"/><path class="cls-12" d="M244.74,49.87V98.43s-.28,1,1.25,1.25c.14-.14,76.07,9.55,76.07,9.55V57.68L246.26,48A1.81,1.81,0,0,0,244.74,49.87Z" transform="translate(12.32 0.5)"/><circle class="cls-13" cx="332.39" cy="114.22" r="0.91"/><polygon class="cls-7" points="264.42 54.51 264.42 95.14 319.02 102.78 319.02 61.27 264.42 54.51"/><polygon points="265.34 56.8 265.34 96.5 317.73 102.78 317.73 63.24 265.34 56.8"/><polygon class="cls-14" points="258.56 94.86 258.56 98.25 333.3 108.2 333.3 104.79 258.56 94.86"/><polygon class="cls-7" points="288.15 64.13 269.04 62.01 269.04 61.13 288.15 63.24 288.15 64.13"/><polygon class="cls-7" points="302.8 69.64 269.04 65.83 269.04 64.95 302.8 68.76 302.8 69.64"/><polygon class="cls-7" points="295.41 74.07 269.04 71.2 269.04 70.33 295.41 73.19 295.41 74.07"/><polygon class="cls-7" points="280.65 76.83 269.04 75.78 269.04 74.89 280.65 75.95 280.65 76.83"/><polygon class="cls-7" points="312.11 88.51 269.04 83.68 269.04 82.8 312.11 87.63 312.11 88.51"/><path class="cls-15" d="M271.06,121.94s-1.11-.27-1.15,1.91a8.38,8.38,0,0,1,0,1.84s.09.51,3.69,1.19c.19,0,28.82,4.09,28.82,4.09a4,4,0,0,0,4.28-1.36s7.14-9.2,7.14-9.2v-3.24Z" transform="translate(12.32 0.5)"/><path class="cls-15" d="M278.26,112.81l-7.2,9.13s-1.4,2.22,2.54,2.73c.19,0,27.46,3.87,27.46,3.87s2.24.73,4.36-1.66c.41-.34,8.42-9.71,8.42-9.71Z" transform="translate(12.32 0.5)"/><path class="cls-16" d="M287.25,121.43l20.31,3-2.14,2.41a4.71,4.71,0,0,1-4.36,1.66l-27.46-3.87s-4.06-.81-2.54-2.73l2.23-2.82Z" transform="translate(12.32 0.5)"/></g><g id="pc2"><path class="cls-3" d="M217.92,111.57s.15,4-4.39,4c-.32,0-13.1,0-13.1,0v-4Z" transform="translate(12.32 0.5)"/><path class="cls-17" d="M120.9,30.82v-3a2.38,2.38,0,0,1,2.37-2.16H220s2.47.39,2.47,2.6a32.2,32.2,0,0,1,0,3.26Z" transform="translate(12.32 0.5)"/><path class="cls-17" d="M120.9,92.68l0,9.52a2.3,2.3,0,0,0,2.35,2.08H220s2.52.43,2.5-3.06c.11-.25,0-10,0-10Z" transform="translate(12.32 0.5)"/><path class="cls-18" d="M120.9,95V30.82s-.92-2.1,3.28-2.1c.26.26,95.15,0,95.15,0s3-.13,3.15,2.76V95Z" transform="translate(12.32 0.5)"/><polygon class="cls-19" points="137.12 33.13 138.05 90.81 231 90.81 231 32.88 137.12 33.13"/><polygon class="cls-20" points="231 37.22 231 32.88 137.12 33.09 137.12 37.42 231 37.22"/><g id="window2"><path class="cls-21" d="M130.69,46.2l.14,38.8s-.12.83,1.32.67c.08,0,62.49,0,62.49,0A1.66,1.66,0,0,0,196,83.93V46.2Z" transform="translate(12.32 0.5)"/><rect class="cls-22" x="166.03" y="54.26" width="3.74" height="1.06"/><rect class="cls-23" x="147.59" y="50.61" width="11.13" height="1.1"/><rect class="cls-24" x="147.78" y="54.51" width="16.5" height="0.53"/><path class="cls-25" d="M130.69,46.2V42.77s-.37-1,1.83-1.31c.14-.15,61.28,0,61.28,0s2-.32,2.12,1.14c0-.07.1,3.64.1,3.64Z" transform="translate(12.32 0.5)"/><rect class="cls-26" x="147.59" y="57.88" width="7.84" height="0.89"/><circle class="cls-27" cx="145.79" cy="44.6" r="1.09"/><circle class="cls-28" cx="148.68" cy="44.6" r="1.09"/><circle class="cls-29" cx="151.85" cy="44.6" r="1.09"/><rect class="cls-30" x="157.7" y="57.88" width="34.98" height="0.89"/><rect class="cls-31" x="151.5" y="61.7" width="28.13" height="0.69"/><rect class="cls-32" x="181.59" y="61.7" width="4.71" height="0.69"/><rect class="cls-33" x="151.24" y="65.24" width="5.32" height="0.89"/><rect class="cls-33" x="151.24" y="68.89" width="5.32" height="0.85"/><rect class="cls-33" x="147.78" y="72.55" width="8.78" height="0.77"/><rect class="cls-34" x="158.55" y="65.24" width="29.58" height="0.89"/><rect class="cls-34" x="158.55" y="68.89" width="15.28" height="0.85"/><rect class="cls-35" x="175.41" y="68.89" width="15.2" height="0.85"/><rect class="cls-36" x="158.26" y="72.55" width="17.15" height="0.77"/></g><g id="window2-2" data-name="window2"><path class="cls-18" d="M184.85,53.7l0,28.1s0,.6.46.48c0,0,21.57,0,21.57,0s.49-.12.49-1.28V53.7Z" transform="translate(12.32 0.5)"/><rect class="cls-22" x="208.25" y="61.77" width="1.32" height="1.06"/><rect class="cls-23" x="201.74" y="58.11" width="3.93" height="1.1"/><rect class="cls-24" x="201.81" y="62.01" width="5.83" height="0.53"/><path class="cls-25" d="M184.84,53.7V50.27s-.13-1,.63-1.31c.05-.15,21.17,0,21.17,0s.7-.32.73,1.14c0-.07,0,3.64,0,3.64Z" transform="translate(12.32 0.5)"/><rect class="cls-26" x="201.74" y="65.38" width="7.84" height="0.89"/><circle class="cls-27" cx="199.94" cy="52.1" r="1.09"/><circle class="cls-28" cx="202.83" cy="52.1" r="1.09"/><circle class="cls-29" cx="206" cy="52.1" r="1.09"/><rect class="cls-30" x="205.31" y="65.38" width="12.36" height="0.89"/><rect class="cls-31" x="205.3" y="69.2" width="9.94" height="0.69"/><rect class="cls-32" x="216.11" y="69.2" width="1.67" height="0.69"/><rect class="cls-33" x="202.06" y="73.18" width="5.32" height="0.89"/><rect class="cls-33" x="205.39" y="76.39" width="5.32" height="0.85"/><rect class="cls-33" x="201.93" y="80.05" width="8.78" height="0.77"/><rect class="cls-35" x="211.57" y="76.39" width="5.37" height="0.85"/><rect class="cls-36" x="205.51" y="80.05" width="6.06" height="0.77"/></g><path class="cls-3" d="M115.67,111.57s-.51,4,4.36,4c.15,0,16.38,0,16.38,0l6.69,6.85-.39-10.81Z" transform="translate(12.32 0.5)"/><path class="cls-37" d="M187.63,108.06h11.62a1.61,1.61,0,0,1,1.24,1.62v12.17s-.42,1.5-3.23,1.5H144.87a2.3,2.3,0,0,1-2.16-2.31V109.23a3.55,3.55,0,0,1,2.67-1.53Z" transform="translate(12.32 0.5)"/><path class="cls-38" d="M143.1,113.28s-.39-1.71,1.68-1.71h53.61s2,0,2,1.71c.09.09,0,5.84,0,5.84s.14,1.2-2,1.2c-.21.21-53.61,0-53.61,0s-2.16.39-2.07-1.2S143.1,113.28,143.1,113.28Z" transform="translate(12.32 0.5)"/><polygon class="cls-39" points="200.09 104.79 200.09 114.69 167.38 114.69 167.38 104.78 200.09 104.79"/><rect class="cls-40" x="232.49" y="33.49" width="11.31" height="8.08"/><rect class="cls-40" x="232.49" y="44.29" width="11.31" height="8.08"/><rect class="cls-40" x="232.49" y="55.17" width="11.31" height="8.08"/><path class="cls-41" d="M222,34.7a20.79,20.79,0,0,0,6.05,0" transform="translate(12.32 0.5)"/><path class="cls-41" d="M221.55,36.91a30.07,30.07,0,0,0,6,0,14.81,14.81,0,0,1,2.49-.16" transform="translate(12.32 0.5)"/><path class="cls-41" d="M222,39a19.85,19.85,0,0,0,7.37.09" transform="translate(12.32 0.5)"/><path class="cls-41" d="M224.17,48a11.56,11.56,0,0,1,3.32-.2" transform="translate(12.32 0.5)"/><path class="cls-41" d="M225.1,49.58a20.47,20.47,0,0,1,4.94.57" transform="translate(12.32 0.5)"/><path class="cls-41" d="M222.18,57.41a15.43,15.43,0,0,1,4.54.27" transform="translate(12.32 0.5)"/><path class="cls-41" d="M222.77,60.85c0-.18.29-.22.48-.22a20.65,20.65,0,0,1,5,.63" transform="translate(12.32 0.5)"/></g><g id="pc1"><polygon class="cls-3" points="47.05 116.03 66.8 136.2 60.46 113.06 47.05 113.06 47.05 116.03"/><path class="cls-42" d="M43.27,77.62s-.54-1.93,3.09-2.52c.08.07,49.53-8.28,49.53-8.28s2.53-.51,2.79,1.69c.08.08.59,34.15.59,34.15s0,1.87-1,2l-52.36,9.12s-2.71.33-2.64-2.12C43.23,111.54,43.27,77.62,43.27,77.62Z" transform="translate(12.32 0.5)"/><polygon class="cls-19" points="57.8 78.34 58.32 111.74 108.67 103.33 108.67 69.78 57.8 78.34"/><polygon class="cls-20" points="83.24 77.02 108.67 72.85 108.67 69.78 57.8 78.34 57.8 81.41 83.24 77.02"/><path class="cls-43" d="M49.43,108.68s0-1.39,1.9-1.61c.15,0,40.86-6.87,40.86-6.87s2.12-.88,2.63,2.27c.15,0-45.75,7.89-45.75,7.89Z" transform="translate(12.32 0.5)"/><polygon class="cls-44" points="64.67 106.26 67.45 105.73 67.45 108.42 64.67 108.96 64.67 106.26"/><path class="cls-45" d="M57.21,136.09s-2.51,1-4.34-2.12l-9.6-17.06s-1.08-2.25.66-2.64c-.09,0,54.31-9.56,54.31-9.56l3.68,2.46,9.09,15.6s1.57,3.82-1.93,4.4C109,127.17,57.21,136.09,57.21,136.09Z" transform="translate(12.32 0.5)"/><path class="cls-46" d="M43.48,115.75l10.19,17.52a3.12,3.12,0,0,0,2.71.64c.16,0,54.28-9.58,54.28-9.58s1.06-.29.35-1.56c0-.14-10.37-17.77-10.37-17.77s-.42-.71-2.4-.29c-.14.07-53.48,9.32-53.48,9.32S42.61,114.27,43.48,115.75Z" transform="translate(12.32 0.5)"/><path class="cls-38" d="M48.85,116.64s-1.27.21-.42,1.62c0,.14,3.14,5.35,3.14,5.35s.07.85,2.47.49c.07-.07,48.25-8.53,48.25-8.53s.7-.21,0-1.2c.07-.14-3.2-5.85-3.2-5.85s-.35-.91-2-.49C97.11,108.1,48.85,116.64,48.85,116.64Z" transform="translate(12.32 0.5)"/><polygon class="cls-47" points="69.94 105.31 72.72 104.78 72.72 107.47 69.94 108.01 69.94 105.31"/><polygon class="cls-48" points="74.98 104.64 77.76 104.11 77.76 106.8 74.98 107.34 74.98 104.64"/><polygon class="cls-49" points="80.1 103.69 82.87 103.16 82.87 105.85 80.1 106.39 80.1 103.69"/><polygon class="cls-50" points="85.21 103.02 87.99 102.49 87.99 105.18 85.21 105.73 85.21 103.02"/><polygon class="cls-51" points="90.48 102.07 93.25 101.54 93.25 104.23 90.48 104.78 90.48 102.07"/><polygon class="cls-48" points="100.42 100.16 103.19 99.63 103.19 102.33 100.42 102.87 100.42 100.16"/><g id="window"><path class="cls-25" d="M51.92,84.49V82.73s-.37-1,1.83-1.31c.14-.15,17.61-3,17.61-3s1.46-.36,1.54,1.1v1.39Z" transform="translate(12.32 0.5)"/><polygon class="cls-7" points="70.82 81.93 70.82 83.3 84.26 81.11 83.96 79.79 70.82 81.93"/><ellipse class="cls-27" cx="65.56" cy="83.69" rx="0.44" ry="0.88"/><ellipse class="cls-52" cx="67.24" cy="83.3" rx="0.44" ry="0.88"/><ellipse class="cls-53" cx="68.8" cy="82.99" rx="0.44" ry="0.88"/><path class="cls-21" d="M51.92,84.49V101s-.11.83,1.33.67c.07,0,18.25-3.27,18.25-3.27a1.66,1.66,0,0,0,1.4-1.76V80.91Z" transform="translate(12.32 0.5)"/><polygon class="cls-25" points="66 86.96 73.7 85.71 73.7 86.71 66.06 87.81 66 86.96"/><polygon class="cls-54" points="66.36 89.11 66.36 98.64 82.34 96 82.34 86.76 66.36 89.11"/></g><g id="window-2" data-name="window"><path class="cls-25" d="M67.87,87.85V86.47s-.29-.8,1.43-1c.11-.11,13.78-2.34,13.78-2.34s1.14-.29,1.2.86V85Z" transform="translate(12.32 0.5)"/><polygon class="cls-7" points="85.34 85.96 85.34 87.02 95.85 85.31 95.62 84.28 85.34 85.96"/><ellipse class="cls-27" cx="81.22" cy="87.33" rx="0.34" ry="0.69"/><ellipse class="cls-52" cx="82.53" cy="87.02" rx="0.34" ry="0.69"/><ellipse class="cls-53" cx="83.75" cy="86.78" rx="0.34" ry="0.69"/><path class="cls-21" d="M67.87,87.85v13s-.09.64,1,.52c.06,0,14.28-2.56,14.28-2.56a1.3,1.3,0,0,0,1.09-1.38V85Z" transform="translate(12.32 0.5)"/><polygon class="cls-25" points="85.38 89.07 91.4 88.09 91.4 88.87 85.43 89.73 85.38 89.07"/><polygon class="cls-55" points="81.84 91.57 81.84 99.03 94.35 96.96 94.35 89.73 81.84 91.57"/></g><path class="cls-38" d="M72,122.29s-1.83.69-1.07,1.9c.14.12,2.7,4.16,2.7,4.16a2.18,2.18,0,0,0,2.45,1c1.83-.31,14.81-2.64,14.81-2.64s.78-.7,0-2S88.61,121,88.61,121a1.94,1.94,0,0,0-2.44-1.12C84.24,120.27,72,122.29,72,122.29Z" transform="translate(12.32 0.5)"/><polygon class="cls-56" points="48.62 83.3 57.35 81.93 57.35 90.34 48.62 91.82 48.62 83.3"/><polygon class="cls-57" points="95.67 101.12 98.44 100.59 98.44 103.28 95.67 103.83 95.67 101.12"/></g><path class="cls-37" d="M188,104.29" transform="translate(12.32 0.5)"/><g id="man"><path class="cls-3" d="M133.49,171H111.58l-2.47-6.86-.49-3c0-16.17,13.89-17.1,13.89-17.1l7.69-1.25,6.21,24.66" transform="translate(12.32 0.5)"/><path class="cls-58" d="M226.51,138.83s-5.5.27-5,5.17c.1.26-.7,3.69,2.32,5.23-.07-.06-2.32,4.37-2.32,4.37l3.86,8.25,3.55-.27Z" transform="translate(12.32 0.5)"/><path class="cls-59" d="M129.42,146.08s-2.4,7.13,5.35,10.43c0-.12,71.49,1,71.49,1s11.3-2.13,8.76-11.52c.13-.26-14.61-21.82-30.22-22.29.12,0-28.45,1-28.45,1S147.45,122,129.42,146.08Z" transform="translate(12.32 0.5)"/><path class="cls-60" d="M158.46,123.67h21.59s.41,6.9-9.83,7C170.14,130.69,160.62,131.89,158.46,123.67Z" transform="translate(12.32 0.5)"/><path class="cls-61" d="M160.32,114.56v8.79s3.79,4.87,9.25,4.1,6-.58,8.62-4.1v-7.66Z" transform="translate(12.32 0.5)"/><path class="cls-62" d="M169.16,70.86s-10.51-2.37-16.61,12.88c0,.68-2.71,18.64,6.78,28.13.68.34,3,5.76,9.83,5.76A15.55,15.55,0,0,0,180,114.25c.34,0,10.85-6.78,7.8-31.19C187.8,82.73,183.73,69.17,169.16,70.86Z" transform="translate(12.32 0.5)"/><path class="cls-63" d="M130.9,197.13s-9.29,3.77-9,19.74c-.13,0,2.23,56.61,2.23,56.61s.89,7.27,9.39,6.36c.19.13,7.59.28,8.5-5.84v-7.4l56.61-.13v7.4s.13,5.87,8.18,6.05c.26.18,8.18.05,8.7-5.27.13-.39,3.24-63.88,3.24-63.88s-1.55-10.55-8.31-13.39S130.9,197.13,130.9,197.13Z" transform="translate(12.32 0.5)"/><path class="cls-61" d="M215,146l11.39,14.62v-9.09s-2.44-3-1.88-5.53c0,0-1.5-4.31-.09-4.59s1.22-.1,2,1.59c.09,0-.66-5.44,1.5-4.78.09.09,1.5-.39,2.06,2.38.09.15.28-.6,3.47.71,0,.19,6.09,3.84,1.87,9.66,0,.09.94,18,.94,18s1.59,10.31-7,9c0-.19-3.85.69-20.2-21.31C209.27,156.53,215,146,215,146Z" transform="translate(12.32 0.5)"/><path class="cls-64" d="M158.46,123.67s-6-.26-10.29,2.73c-.11.07-7.09,1.92-19.75,19.68,0,0-1,8.24,6.35,11.43h71.49s4.69-1.3,5.93-2.39c0-.15-5.42-8.36-9.91-12.54,0-.16-2.64-3.51-6.35-2-.31.13-.78,1.52-8.83,1.68l-33.16.31s-5.73,0-7.9-2c0-.34-2.17-1.58,1.7-5,0,.16,5.52-7,12.75-8.06C160.7,127.76,158.46,123.67,158.46,123.67Z" transform="translate(12.32 0.5)"/><path class="cls-65" d="M214.69,158.11S232.5,185.44,236.25,169c0,0,1,10.68-7,9,0,0-4.88-.63-20.2-21.31L215,146A44.22,44.22,0,0,1,214.69,158.11Z" transform="translate(12.32 0.5)"/><path class="cls-61" d="M128.42,146.08S115.52,160.7,114,169.22c-.15,0-1.86,4.34,1.7,6.66.16.16,4.65,2.1,11-4.09,1.16-1.16,7.44-6,7.44-6l.66-8.3Z" transform="translate(12.32 0.5)"/><path class="cls-66" d="M132.25,161.4s-7.59,17.74-16.58,14.48c0,0,7,4.19,18.44-10.07l.66-8.3-6.35-11.43S122.65,153.73,132.25,161.4Z" transform="translate(12.32 0.5)"/><path class="cls-67" d="M206.26,226.35a8.27,8.27,0,0,1,6.06,7.92c-.09-.13-.13,23.46-.13,23.46l-83.82.13V234.79l8-8.44Z" transform="translate(12.32 0.5)"/><path class="cls-68" d="M128.37,234.79s-.27-8.44,8-8.44c.26.13,0,15.58,0,15.58s-.13,4.54,5.45,4.54c.13-.26,60.25,0,60.25,0s10.18-.21,10.08,11.26l-83.82.13Z" transform="translate(12.32 0.5)"/><path class="cls-69" d="M128.37,208.3s1.3,15.22,12.85,27c.12.18,7.39,8.1,20.51,9,.39-.13,15.71,0,15.71,0s12.46,1.3,24.54-10.51c.13-.13,9.73-12.86,11.55-27.92,0-.13-2.4-2.59-4.51-.52,0-.26-77.67,0-77.67,0S127.24,202.48,128.37,208.3Z" transform="translate(12.32 0.5)"/><path class="cls-70" d="M167.28,107.33s14,2.75,19.43-3.51c0,.08-2.58,13.86-17.55,13.81,0,0-8.84,1.49-15.12-11.84a45.62,45.62,0,0,1-1.87-21.09c.69-5.28,3.15-6.36,3.15-6.36S152.75,101.28,167.28,107.33Z" transform="translate(12.32 0.5)"/><path class="cls-71" d="M124.85,281a4.37,4.37,0,0,1,4.38-4.44c0,.15,8.49,0,8.49,0a5,5,0,0,1,4.56,5.48c0,.39,0,4.42,0,4.42l-11.6,5.14s-5.58-.33-5.84-4.88C125,286.73,124.85,281,124.85,281Z" transform="translate(12.32 0.5)"/><path class="cls-72" d="M191,144.56s14.15-.41,15.46,13.55c.13.07,1.31,13.95,1.31,13.95l-74.27-1s9.56-25.41,14.67-26.46S191,144.56,191,144.56Z" transform="translate(12.32 0.5)"/><path class="cls-64" d="M136.41,215.44s2.18,12.08,33.87,12.08c.41.13,28.58,1,36-12.08C206.69,216,136.41,215.44,136.41,215.44Z" transform="translate(12.32 0.5)"/><path class="cls-73" d="M167.41,333h6.65a2.82,2.82,0,0,0,2.64-2.89,46.34,46.34,0,0,0,0-4.86h-12V331A2.85,2.85,0,0,0,167.41,333Z" transform="translate(12.32 0.5)"/><path class="cls-71" d="M215,281a4.37,4.37,0,0,0-4.38-4.44c0,.15-8.5,0-8.5,0a5,5,0,0,0-4.55,5.48c0,.39,0,5.42,0,5.42l11.59,4.14s5.59-.33,5.85-4.88C214.85,286.73,215,281,215,281Z" transform="translate(12.32 0.5)"/><ellipse class="cls-73" cx="143" cy="310.23" rx="5.03" ry="3.84"/><path class="cls-71" d="M133.49,171l1.28-13.51s3-11.9,13.39-12.95a10.37,10.37,0,0,0-1.57,8c.26.13,46.24-.39,46.24-.39s13.22.91,14.93,19.9c.13.14,3.27,31.44,3.27,31.44s.66,15.06-12.18,15.72c.13.13-56.58,0-56.58,0s-13.63-.39-11.92-16.64C130.35,202.71,133.49,171,133.49,171Z" transform="translate(12.32 0.5)"/><path class="cls-74" d="M163.34,299.6H137.83l-2.17,2.09s3.72,3.18,2.48,6.28a10.2,10.2,0,0,1-1.08,1.32H124.42l-1.16-1.4s-.16-6.2,6-7.83h1.39s-1.63-7.64,5.35-7.64h27.37V280.29s-.06-2.56,1.32-3.72c0-.16,11.32,8.6,11.32,8.6s.85,6.36-3,7.25c.16,0-5.58,0-5.58,0v16s.39,4.27,5.58,4.35,4.58-5,4.58-5l0,6.52a8.11,8.11,0,0,1-2.5,3.72s2.5,1.08,2.5,3.18c.06,0,0,5.35,0,5.35h-14v-5.43s1.09-2.95,3-2.87c-.08,0-3.42-1.39-3.42-4.57C163.11,313.47,163.34,299.6,163.34,299.6Z" transform="translate(12.32 0.5)"/><path class="cls-75" d="M175.84,272.07s1.61.23,1.84,3.65,0,11.47,0,11.47h27.6s8.07.23,8.07,8.61c.08.23,0,4.18,0,4.18h-1.16v-3.49s-1.94-4.26-5.35-4.34c-.08.08-29.31,0-29.31,0v15.66s-.47,5-4.58,5-5.58-2.64-5.58-4.35v-16H136s-5.35-.11-5.35,5v2.64h-1.39V295.8s1.24-8.69,8.68-8.69c-.08.08,25.74-.15,25.74-.15Z" transform="translate(12.32 0.5)"/><path class="cls-76" d="M164.66,267.81v15.74S166,289,170.34,289a5.88,5.88,0,0,0,5.64-3.8l-.18-17.23Z" transform="translate(12.32 0.5)"/><path class="cls-77" d="M152.48,161.27s-9.35-.74-11.26,15l58.68.17s-.53-15-12.71-15.19C187.32,161.19,152.48,161.27,152.48,161.27Z" transform="translate(12.32 0.5)"/><path class="cls-74" d="M137.68,204.68s-1.18,9.43,8.25,9.82c.27-.13,19.39,0,19.39,0v43.36H128.37v4.19s-.38,5.5,8.53,5.76c.13.13,27.76,0,27.76,0s2.2,3.15,5.62,3.41a5.21,5.21,0,0,0,5.52-3.28c.13-.13,28.95,0,28.95,0s6.9-.26,7.44-5.89c.28-.39,0-4.32,0-4.32H175.41V214.5H196s8-.78,7.07-11.65c.13-.4-3.14-26.39-3.14-26.39s-2.36-11.86-13-11.86c0,.13-34.58,0-34.58,0s-8.9.07-11.13,11.69C141.35,176.52,137.68,204.68,137.68,204.68Z" transform="translate(12.32 0.5)"/><ellipse class="cls-73" cx="224.65" cy="310.23" rx="5.03" ry="3.84"/><path class="cls-78" d="M169.93,281.92V289a5.76,5.76,0,0,0,6-3.8l-.07-6S174.35,281.69,169.93,281.92Z" transform="translate(12.32 0.5)"/><path class="cls-74" d="M177.53,292.15v7.14h27.68l2,2.28a6.34,6.34,0,0,0-2.09,4.15c0,.16-.08,2.56-.08,2.56l1.55,1h12l.93-.86V305.1s-1.78-5.12-6.2-5.12h-1.16v-3.49s-.78-4.73-5.35-4.34Z" transform="translate(12.32 0.5)"/></g><g id="cabinet"><polygon class="cls-4" points="268.04 209.9 268.04 227.47 325.57 227.47 325.71 209.48 268.04 209.9"/><polygon class="cls-3" points="268.04 216.42 272.01 221.66 303.04 221.66 303.04 214.72 309.42 222.94 316.04 218.43 324.44 227.47 325.57 227.47 325.71 209.48 268.04 209.9 268.04 216.42"/><rect class="cls-4" x="262.66" y="171.35" width="68.15" height="16.17"/><rect class="cls-3" x="262.66" y="171.35" width="68.15" height="8.66"/><rect class="cls-79" x="268.04" y="192.05" width="57.53" height="17.85"/><path class="cls-80" d="M250.34,187v84.25l68.15.81V187Zm62.91,79.49H255.73V231.08h57.52Zm0-39.53H255.73V191.55h57.52Z" transform="translate(12.32 0.5)"/><rect class="cls-81" x="272.01" y="195.45" width="31.03" height="15.73"/><rect class="cls-7" x="272.01" y="211.18" width="31.03" height="10.49"/><rect class="cls-3" x="272.01" y="195.02" width="31.03" height="10.77"/><polygon class="cls-82" points="309.42 208.06 323.87 195.02 324.44 209.48 309.42 222.94 309.42 208.06"/><polygon class="cls-83" points="323.87 195.02 325.71 195.02 325.71 209.48 311.4 223.79 309.42 222.94 324.44 209.48 323.87 195.02"/><rect class="cls-84" x="263.31" y="227.63" width="67.5" height="3.6"/><rect class="cls-4" x="263.31" y="231.23" width="67.5" height="40.64"/><path class="cls-3" d="M259.69,249.47a3.87,3.87,0,0,1-.56-2.11s-.05-6.27,0-6.35c0-1.86.37-1.8.37-1.8l1.44,1.61h2.8v-.59s-5.06-5-5.11-5c-1.15-.84-1.31.68-1.31.68v13.69a2.78,2.78,0,0,0,.76,1.42l2.86,3.75,2.88-.14S259.72,249.26,259.69,249.47Z" transform="translate(12.32 0.5)"/><path class="cls-85" d="M260.94,240.82v14a1.55,1.55,0,0,0,1.58,1,1.18,1.18,0,0,0,1.3-1.15V240.82s.29-1.15-1.44-1.15S260.94,240.82,260.94,240.82Z" transform="translate(12.32 0.5)"/></g><g id="coffee"><path class="cls-3" d="M215.48,117.23s-5.39,1.64-2.84,4.67c-.08,0,10.5,11.33,10.5,11.33a9.66,9.66,0,0,0,9.37.84c.16,0,3.06-1.1,3.19-2.35l-13.95-14.28S217.07,116.88,215.48,117.23Z" transform="translate(12.32 0.5)"/><path class="cls-86" d="M223.77,118.41l7.34.23-.51,12.43a12.77,12.77,0,0,1-6.11-.66Z" transform="translate(12.32 0.5)"/><path class="cls-87" d="M231.11,118.64l6.06-1.77-1.25,12.25s-1.16,1.49-5.32,1.95Z" transform="translate(12.32 0.5)"/><path class="cls-88" d="M223.77,118.41l.72,12s-2.24-.9-2.74-1.77l-1.12-12.3Z" transform="translate(12.32 0.5)"/><path class="cls-89" d="M219.79,113.54l.84,2.8s1.45,2.78,8.29,2.78,8.8-2.79,8.8-2.79l.33-2.79Z" transform="translate(12.32 0.5)"/><ellipse class="cls-90" cx="241.24" cy="114.04" rx="9.13" ry="4.44"/><path class="cls-91" d="M221.47,111.24v2.58s1.51,2.86,7.45,2.86,7.45-3.14,7.45-3.14v-2.3" transform="translate(12.32 0.5)"/><ellipse class="cls-92" cx="241.24" cy="111.74" rx="7.41" ry="4.11"/><polygon class="cls-93" points="236.81 112.07 236.81 113.31 239.16 114.04 239.16 113.06 236.81 112.07"/><path class="cls-94" d="M221.75,128.64l.81,3.45a5.93,5.93,0,0,0,1.93,1.51,30.85,30.85,0,0,0,0-3.19Z" transform="translate(12.32 0.5)"/><path class="cls-95" d="M230.6,131.07l-6.11-.66v3.19s.84,1,5.89.73C230.49,134.27,230.6,131.07,230.6,131.07Z" transform="translate(12.32 0.5)"/><path class="cls-96" d="M235.92,129.12l-5.32,1.95-.22,3.26s3.47-.45,5.32-2.61C235.76,131.7,235.92,129.12,235.92,129.12Z" transform="translate(12.32 0.5)"/></g><g id="ipad"><path class="cls-3" d="M245.5,132s-3-.33-3.15,2.29v19.18s.22,2.18,2.07,2.18Z" transform="translate(12.32 0.5)"/><path class="cls-97" d="M244.26,153.64v1.14a2.18,2.18,0,0,0,2.36,2.29h23.29s2-.19,2-2c0,0,0-1.79,0-1.79Z" transform="translate(12.32 0.5)"/><path class="cls-98" d="M244.32,134.86s-.28-3.14,2.47-3.14h22.83a2.1,2.1,0,0,1,2.27,2.26V153.3a1.91,1.91,0,0,1-2,1.79H246.86s-2.6-.07-2.6-1.93C244.32,153.16,244.32,134.86,244.32,134.86Z" transform="translate(12.32 0.5)"/><rect x="258.94" y="134.38" width="23.29" height="19.42"/><path class="cls-99" d="M258,131.72,249.36,155l16.07.32L272,138.82l-.07-4.84a2.25,2.25,0,0,0-2.27-2.26Z" transform="translate(12.32 0.5)"/></g><rect class="cls-1" x="12.32" y="0.5" width="346.13" height="346.13"/></g><rect class="cls-100" x="12.32" y="0.5" width="346.13" height="346.13"/></svg>