<?xml version="1.0" encoding="utf-8"?>
<!-- Generator: Adobe Illustrator 23.1.1, SVG Export Plug-In . SVG Version: 6.00 Build 0)  -->
<svg version="1.1" id="Layer_1" xmlns="http://www.w3.org/2000/svg" xmlns:xlink="http://www.w3.org/1999/xlink" x="0px" y="0px"
	 viewBox="0 0 480 480" style="enable-background:new 0 0 480 480;" xml:space="preserve">
<style type="text/css">
	.st0{fill:#EEEEEE;}
</style>
<path class="st0" d="M448,0H240v16h208c8.8,0,16,7.2,16,16v416c0,8.8-7.2,16-16,16H288v16h160c17.7,0,32-14.3,32-32V32
	C480,14.3,465.7,0,448,0z"/>
<path class="st0" d="M336,48c-20.7,0-40.3,8.9-54,24.4L294,83c19.5-22.1,52.8-25.3,76.2-7.3c23.4,18,28.8,51,12.4,75.5
	s-49,32.1-74.5,17.3l-8,13.8c26.2,15.1,59.1,12.2,82.3-7.2s31.7-51.3,21.4-79.8S366.3,48,336,48z"/>
<path class="st0" d="M336,160c22.1,0,40-17.9,40-40s-17.9-40-40-40s-40,17.9-40,40C296,142.1,313.9,160,336,160z M336,96
	c13.3,0,24,10.7,24,24s-10.7,24-24,24s-24-10.7-24-24S322.7,96,336,96z"/>
<path class="st0" d="M336,216c-52-0.2-97.2,35.6-109,86.2l15.6,3.7c9.5-39.9,43.2-69.4,84-73.4c40.8-4,79.6,18.3,96.7,55.6
	c17.1,37.3,8.6,81.3-21.1,109.5c-29.7,28.2-74.1,34.5-110.4,15.6l-7.4,14.2c41.2,21.4,91.4,15.2,126.1-15.7s46.7-80,30.2-123.5
	S382.5,216,336,216z"/>
<path class="st0" d="M336,392c-15.7,0-30.9-5.8-42.7-16.3l-10.7,11.9c26.9,24,66.6,27.1,96.8,7.5c30.3-19.6,43.7-57.1,32.7-91.4
	c-11-34.4-43.6-57.2-79.6-55.6s-66.6,27-74.6,62.2l15.6,3.5c7.4-32.7,38.8-54,71.9-49.1c33.1,5,56.8,34.7,54.3,68.1
	C397.3,366.2,369.5,392,336,392z"/>
<path class="st0" d="M432,32h16v16h-16V32z"/>
<path class="st0" d="M224,432h16v16h-16V432z"/>
<path class="st0" d="M432,432h16v16h-16V432z"/>
<path class="st0" d="M24,480h224c13.3,0,24-10.7,24-24V344c0-13.3-10.7-24-24-24h-50.6l-14-35c-1.2-3-4.2-5-7.4-5H96
	c-3.3,0-6.2,2-7.4,5l-14,35H24c-13.3,0-24,10.7-24,24v112C0,469.3,10.7,480,24,480z M16,344c0-4.4,3.6-8,8-8h56c3.3,0,6.2-2,7.4-5
	l14-35h69.2l14,35c1.2,3,4.2,5,7.4,5h56c4.4,0,8,3.6,8,8v112c0,4.4-3.6,8-8,8H24c-4.4,0-8-3.6-8-8V344z"/>
<path class="st0" d="M136,448c30.9,0,56-25.1,56-56s-25.1-56-56-56s-56,25.1-56,56C80,422.9,105.1,448,136,448z M136,352
	c22.1,0,40,17.9,40,40s-17.9,40-40,40s-40-17.9-40-40C96,369.9,113.9,352,136,352z"/>
<path class="st0" d="M40,352h16v16H40V352z"/>
<path class="st0" d="M208,352h32v16h-32V352z"/>
<path class="st0" d="M8,192h24.6c3.6,24.5,22.8,43.8,47.4,47.4v0.6c0,13.3,10.7,24,24,24s24-10.7,24-24V128c0-13.3-10.7-24-24-24
	s-24,10.7-24,24v0.6c-12.2,1.7-23.4,7.5-32,16.2V144c0-53,43-96,96-96s96,43,96,96v0.9c-8.6-8.8-19.8-14.5-32-16.2V128
	c0-13.3-10.7-24-24-24s-24,10.7-24,24v112c0,13.3,10.7,24,24,24s24-10.7,24-24v-0.6c24.5-3.6,43.8-22.8,47.4-47.4H280
	c4.4,0,8-3.6,8-8v-40C288,64.5,223.5,0,144,0S0,64.5,0,144v40C0,188.4,3.6,192,8,192z M96,232V128c0-4.4,3.6-8,8-8s8,3.6,8,8v112
	c0,4.4-3.6,8-8,8s-8-3.6-8-8V232z M192,136v104c0,4.4-3.6,8-8,8s-8-3.6-8-8V128c0-4.4,3.6-8,8-8s8,3.6,8,8V136z M208,223.2v-78.4
	c18.6,3.8,32,20.2,32,39.2S226.6,219.4,208,223.2z M80,144.8v78.4C61.4,219.4,48,203,48,184S61.4,148.6,80,144.8z M16,144
	C16,73.3,73.3,16,144,16s128,57.3,128,128v32h-16v-32c0-61.9-50.1-112-112-112S32,82.1,32,144v32H16V144z"/>
</svg>
